# xmcd
# 
# Track frame offsets:
#     183
#     18773
#     32688
#     51315
#     66505
#     77848
#     92288
#     106233
#     121835
#     132973
#     147975
#     162113
# 
# Disc length: 2303
# 
# Revision: 13
# Processed by: cddbd v1.5.2PL0 Copyright (c) Steve Scherf et al.
# Submitted via: fre:ac v1.0.27
# 
DISCID=9608fd0c
DTITLE=America - History - America's Greatest Hits
DYEAR=1975
DGENRE=Rock
TTITLE0=A Horse With No Name
TTITLE1=I Need You
TTITLE2=Sandman
TTITLE3=Ventura Highway
TTITLE4=Don't Cross The River
TTITLE5=Only In Your Heart
TTITLE6=Muskrat Love
TTITLE7=Tin Man
TTITLE8=Lonely People
TTITLE9=Sister Golden Hair
TTITLE10=Daisy Jane
TTITLE11=Woman Tonight
EXTD=YEAR: 1975
EXTT0=
EXTT1=
EXTT2=
EXTT3=
EXTT4=
EXTT5=
EXTT6=
EXTT7=
EXTT8=
EXTT9=
EXTT10=
EXTT11=
PLAYORDER=
